<?xml version="1.0" encoding="utf-8" standalone="no"?>
<!DOCTYPE svg PUBLIC "-//W3C//DTD SVG 1.1//EN"
  "http://www.w3.org/Graphics/SVG/1.1/DTD/svg11.dtd">
<svg xmlns:xlink="http://www.w3.org/1999/xlink" width="712.663594pt" height="496.423437pt" viewBox="0 0 712.663594 496.423437" xmlns="http://www.w3.org/2000/svg" version="1.1">
 <metadata>
  <rdf:RDF xmlns:dc="http://purl.org/dc/elements/1.1/" xmlns:cc="http://creativecommons.org/ns#" xmlns:rdf="http://www.w3.org/1999/02/22-rdf-syntax-ns#">
   <cc:Work>
    <dc:type rdf:resource="http://purl.org/dc/dcmitype/StillImage"/>
    <dc:date>2026-04-06T14:26:52.110635</dc:date>
    <dc:format>image/svg+xml</dc:format>
    <dc:creator>
     <cc:Agent>
      <dc:title>Matplotlib v3.9.4, https://matplotlib.org/</dc:title>
     </cc:Agent>
    </dc:creator>
   </cc:Work>
  </rdf:RDF>
 </metadata>
 <defs>
  <style type="text/css">*{stroke-linejoin: round; stroke-linecap: butt}</style>
 </defs>
 <g id="figure_1">
  <g id="patch_1">
   <path d="M 0 496.423437 
L 712.663594 496.423437 
L 712.663594 0 
L 0 0 
z
" style="fill: #ffffff"/>
  </g>
  <g id="axes_1">
   <g id="patch_2">
    <path d="M 120.173594 459.581875 
L 705.463594 459.581875 
L 705.463594 22.621875 
L 120.173594 22.621875 
z
" style="fill: #ffffff"/>
   </g>
   <g id="patch_3">
    <path d="M 120.173594 439.720057 
L 122.87508 439.720057 
L 122.87508 410.295141 
L 120.173594 410.295141 
z
" clip-path="url(#p1bbe134219)" style="fill: #777777; stroke: #000000; stroke-linejoin: miter"/>
   </g>
   <g id="patch_4">
    <path d="M 120.173594 402.938912 
L 126.214896 402.938912 
L 126.214896 373.513996 
L 120.173594 373.513996 
z
" clip-path="url(#p1bbe134219)" style="fill: #777777; stroke: #000000; stroke-linejoin: miter"/>
   </g>
   <g id="patch_5">
    <path d="M 120.173594 366.157767 
L 127.543385 366.157767 
L 127.543385 336.732851 
L 120.173594 336.732851 
z
" clip-path="url(#p1bbe134219)" style="fill: #777777; stroke: #000000; stroke-linejoin: miter"/>
   </g>
   <g id="patch_6">
    <path d="M 120.173594 329.376622 
L 136.663629 329.376622 
L 136.663629 299.951707 
L 120.173594 299.951707 
z
" clip-path="url(#p1bbe134219)" style="fill: #777777; stroke: #000000; stroke-linejoin: miter"/>
   </g>
   <g id="patch_7">
    <path d="M 120.173594 292.595478 
L 390.653382 292.595478 
L 390.653382 263.170562 
L 120.173594 263.170562 
z
" clip-path="url(#p1bbe134219)" style="fill: #777777; stroke: #000000; stroke-linejoin: miter"/>
   </g>
   <g id="patch_8">
    <path d="M 120.173594 255.814333 
L 533.545984 255.814333 
L 533.545984 226.389417 
L 120.173594 226.389417 
z
" clip-path="url(#p1bbe134219)" style="fill: #777777; stroke: #000000; stroke-linejoin: miter"/>
   </g>
   <g id="patch_9">
    <path d="M 120.173594 219.033188 
L 559.202914 219.033188 
L 559.202914 189.608272 
L 120.173594 189.608272 
z
" clip-path="url(#p1bbe134219)" style="fill: #777777; stroke: #000000; stroke-linejoin: miter"/>
   </g>
   <g id="patch_10">
    <path d="M 120.173594 182.252043 
L 564.972777 182.252043 
L 564.972777 152.827128 
L 120.173594 152.827128 
z
" clip-path="url(#p1bbe134219)" style="fill: #777777; stroke: #000000; stroke-linejoin: miter"/>
   </g>
   <g id="patch_11">
    <path d="M 120.173594 145.470899 
L 576.915401 145.470899 
L 576.915401 116.045983 
L 120.173594 116.045983 
z
" clip-path="url(#p1bbe134219)" style="fill: #777777; stroke: #000000; stroke-linejoin: miter"/>
   </g>
   <g id="patch_12">
    <path d="M 120.173594 108.689754 
L 583.21717 108.689754 
L 583.21717 79.264838 
L 120.173594 79.264838 
z
" clip-path="url(#p1bbe134219)" style="fill: #777777; stroke: #000000; stroke-linejoin: miter"/>
   </g>
   <g id="patch_13">
    <path d="M 120.173594 71.908609 
L 677.592641 71.908609 
L 677.592641 42.483693 
L 120.173594 42.483693 
z
" clip-path="url(#p1bbe134219)" style="fill: #777777; stroke: #000000; stroke-linejoin: miter"/>
   </g>
   <g id="matplotlib.axis_1">
    <g id="xtick_1">
     <g id="line2d_1">
      <defs>
       <path id="mba7d3f72b5" d="M 0 0 
L 0 3.5 
" style="stroke: #000000; stroke-width: 0.8"/>
      </defs>
      <g>
       <use xlink:href="#mba7d3f72b5" x="120.173594" y="459.581875" style="stroke: #000000; stroke-width: 0.8"/>
      </g>
     </g>
     <g id="text_1">
      <!-- 0.0 -->
      <g transform="translate(113.017187 473.420469) scale(0.09 -0.09)">
       <defs>
        <path id="DejaVuSans-30" d="M 2034 4250 
Q 1547 4250 1301 3770 
Q 1056 3291 1056 2328 
Q 1056 1369 1301 889 
Q 1547 409 2034 409 
Q 2525 409 2770 889 
Q 3016 1369 3016 2328 
Q 3016 3291 2770 3770 
Q 2525 4250 2034 4250 
z
M 2034 4750 
Q 2819 4750 3233 4129 
Q 3647 3509 3647 2328 
Q 3647 1150 3233 529 
Q 2819 -91 2034 -91 
Q 1250 -91 836 529 
Q 422 1150 422 2328 
Q 422 3509 836 4129 
Q 1250 4750 2034 4750 
z
" transform="scale(0.015625)"/>
        <path id="DejaVuSans-2e" d="M 684 794 
L 1344 794 
L 1344 0 
L 684 0 
L 684 794 
z
" transform="scale(0.015625)"/>
       </defs>
       <use xlink:href="#DejaVuSans-30"/>
       <use xlink:href="#DejaVuSans-2e" x="63.623047"/>
       <use xlink:href="#DejaVuSans-30" x="95.410156"/>
      </g>
     </g>
    </g>
    <g id="xtick_2">
     <g id="line2d_2">
      <g>
       <use xlink:href="#mba7d3f72b5" x="220.286229" y="459.581875" style="stroke: #000000; stroke-width: 0.8"/>
      </g>
     </g>
     <g id="text_2">
      <!-- 0.5 -->
      <g transform="translate(213.129823 473.420469) scale(0.09 -0.09)">
       <defs>
        <path id="DejaVuSans-35" d="M 691 4666 
L 3169 4666 
L 3169 4134 
L 1269 4134 
L 1269 2991 
Q 1406 3038 1543 3061 
Q 1681 3084 1819 3084 
Q 2600 3084 3056 2656 
Q 3513 2228 3513 1497 
Q 3513 744 3044 326 
Q 2575 -91 1722 -91 
Q 1428 -91 1123 -41 
Q 819 9 494 109 
L 494 744 
Q 775 591 1075 516 
Q 1375 441 1709 441 
Q 2250 441 2565 725 
Q 2881 1009 2881 1497 
Q 2881 1984 2565 2268 
Q 2250 2553 1709 2553 
Q 1456 2553 1204 2497 
Q 953 2441 691 2322 
L 691 4666 
z
" transform="scale(0.015625)"/>
       </defs>
       <use xlink:href="#DejaVuSans-30"/>
       <use xlink:href="#DejaVuSans-2e" x="63.623047"/>
       <use xlink:href="#DejaVuSans-35" x="95.410156"/>
      </g>
     </g>
    </g>
    <g id="xtick_3">
     <g id="line2d_3">
      <g>
       <use xlink:href="#mba7d3f72b5" x="320.398864" y="459.581875" style="stroke: #000000; stroke-width: 0.8"/>
      </g>
     </g>
     <g id="text_3">
      <!-- 1.0 -->
      <g transform="translate(313.242458 473.420469) scale(0.09 -0.09)">
       <defs>
        <path id="DejaVuSans-31" d="M 794 531 
L 1825 531 
L 1825 4091 
L 703 3866 
L 703 4441 
L 1819 4666 
L 2450 4666 
L 2450 531 
L 3481 531 
L 3481 0 
L 794 0 
L 794 531 
z
" transform="scale(0.015625)"/>
       </defs>
       <use xlink:href="#DejaVuSans-31"/>
       <use xlink:href="#DejaVuSans-2e" x="63.623047"/>
       <use xlink:href="#DejaVuSans-30" x="95.410156"/>
      </g>
     </g>
    </g>
    <g id="xtick_4">
     <g id="line2d_4">
      <g>
       <use xlink:href="#mba7d3f72b5" x="420.511499" y="459.581875" style="stroke: #000000; stroke-width: 0.8"/>
      </g>
     </g>
     <g id="text_4">
      <!-- 1.5 -->
      <g transform="translate(413.355093 473.420469) scale(0.09 -0.09)">
       <use xlink:href="#DejaVuSans-31"/>
       <use xlink:href="#DejaVuSans-2e" x="63.623047"/>
       <use xlink:href="#DejaVuSans-35" x="95.410156"/>
      </g>
     </g>
    </g>
    <g id="xtick_5">
     <g id="line2d_5">
      <g>
       <use xlink:href="#mba7d3f72b5" x="520.624135" y="459.581875" style="stroke: #000000; stroke-width: 0.8"/>
      </g>
     </g>
     <g id="text_5">
      <!-- 2.0 -->
      <g transform="translate(513.467728 473.420469) scale(0.09 -0.09)">
       <defs>
        <path id="DejaVuSans-32" d="M 1228 531 
L 3431 531 
L 3431 0 
L 469 0 
L 469 531 
Q 828 903 1448 1529 
Q 2069 2156 2228 2338 
Q 2531 2678 2651 2914 
Q 2772 3150 2772 3378 
Q 2772 3750 2511 3984 
Q 2250 4219 1831 4219 
Q 1534 4219 1204 4116 
Q 875 4013 500 3803 
L 500 4441 
Q 881 4594 1212 4672 
Q 1544 4750 1819 4750 
Q 2544 4750 2975 4387 
Q 3406 4025 3406 3419 
Q 3406 3131 3298 2873 
Q 3191 2616 2906 2266 
Q 2828 2175 2409 1742 
Q 1991 1309 1228 531 
z
" transform="scale(0.015625)"/>
       </defs>
       <use xlink:href="#DejaVuSans-32"/>
       <use xlink:href="#DejaVuSans-2e" x="63.623047"/>
       <use xlink:href="#DejaVuSans-30" x="95.410156"/>
      </g>
     </g>
    </g>
    <g id="xtick_6">
     <g id="line2d_6">
      <g>
       <use xlink:href="#mba7d3f72b5" x="620.73677" y="459.581875" style="stroke: #000000; stroke-width: 0.8"/>
      </g>
     </g>
     <g id="text_6">
      <!-- 2.5 -->
      <g transform="translate(613.580364 473.420469) scale(0.09 -0.09)">
       <use xlink:href="#DejaVuSans-32"/>
       <use xlink:href="#DejaVuSans-2e" x="63.623047"/>
       <use xlink:href="#DejaVuSans-35" x="95.410156"/>
      </g>
     </g>
    </g>
    <g id="text_7">
     <!-- Ortalama Katsayı Büyüklüğü (Importance) -->
     <g transform="translate(307.337344 487.14375) scale(0.1 -0.1)">
      <defs>
       <path id="DejaVuSans-4f" d="M 2522 4238 
Q 1834 4238 1429 3725 
Q 1025 3213 1025 2328 
Q 1025 1447 1429 934 
Q 1834 422 2522 422 
Q 3209 422 3611 934 
Q 4013 1447 4013 2328 
Q 4013 3213 3611 3725 
Q 3209 4238 2522 4238 
z
M 2522 4750 
Q 3503 4750 4090 4092 
Q 4678 3434 4678 2328 
Q 4678 1225 4090 567 
Q 3503 -91 2522 -91 
Q 1538 -91 948 565 
Q 359 1222 359 2328 
Q 359 3434 948 4092 
Q 1538 4750 2522 4750 
z
" transform="scale(0.015625)"/>
       <path id="DejaVuSans-72" d="M 2631 2963 
Q 2534 3019 2420 3045 
Q 2306 3072 2169 3072 
Q 1681 3072 1420 2755 
Q 1159 2438 1159 1844 
L 1159 0 
L 581 0 
L 581 3500 
L 1159 3500 
L 1159 2956 
Q 1341 3275 1631 3429 
Q 1922 3584 2338 3584 
Q 2397 3584 2469 3576 
Q 2541 3569 2628 3553 
L 2631 2963 
z
" transform="scale(0.015625)"/>
       <path id="DejaVuSans-74" d="M 1172 4494 
L 1172 3500 
L 2356 3500 
L 2356 3053 
L 1172 3053 
L 1172 1153 
Q 1172 725 1289 603 
Q 1406 481 1766 481 
L 2356 481 
L 2356 0 
L 1766 0 
Q 1100 0 847 248 
Q 594 497 594 1153 
L 594 3053 
L 172 3053 
L 172 3500 
L 594 3500 
L 594 4494 
L 1172 4494 
z
" transform="scale(0.015625)"/>
       <path id="DejaVuSans-61" d="M 2194 1759 
Q 1497 1759 1228 1600 
Q 959 1441 959 1056 
Q 959 750 1161 570 
Q 1363 391 1709 391 
Q 2188 391 2477 730 
Q 2766 1069 2766 1631 
L 2766 1759 
L 2194 1759 
z
M 3341 1997 
L 3341 0 
L 2766 0 
L 2766 531 
Q 2569 213 2275 61 
Q 1981 -91 1556 -91 
Q 1019 -91 701 211 
Q 384 513 384 1019 
Q 384 1609 779 1909 
Q 1175 2209 1959 2209 
L 2766 2209 
L 2766 2266 
Q 2766 2663 2505 2880 
Q 2244 3097 1772 3097 
Q 1472 3097 1187 3025 
Q 903 2953 641 2809 
L 641 3341 
Q 956 3463 1253 3523 
Q 1550 3584 1831 3584 
Q 2591 3584 2966 3190 
Q 3341 2797 3341 1997 
z
" transform="scale(0.015625)"/>
       <path id="DejaVuSans-6c" d="M 603 4863 
L 1178 4863 
L 1178 0 
L 603 0 
L 603 4863 
z
" transform="scale(0.015625)"/>
       <path id="DejaVuSans-6d" d="M 3328 2828 
Q 3544 3216 3844 3400 
Q 4144 3584 4550 3584 
Q 5097 3584 5394 3201 
Q 5691 2819 5691 2113 
L 5691 0 
L 5113 0 
L 5113 2094 
Q 5113 2597 4934 2840 
Q 4756 3084 4391 3084 
Q 3944 3084 3684 2787 
Q 3425 2491 3425 1978 
L 3425 0 
L 2847 0 
L 2847 2094 
Q 2847 2600 2669 2842 
Q 2491 3084 2119 3084 
Q 1678 3084 1418 2786 
Q 1159 2488 1159 1978 
L 1159 0 
L 581 0 
L 581 3500 
L 1159 3500 
L 1159 2956 
Q 1356 3278 1631 3431 
Q 1906 3584 2284 3584 
Q 2666 3584 2933 3390 
Q 3200 3197 3328 2828 
z
" transform="scale(0.015625)"/>
       <path id="DejaVuSans-20" transform="scale(0.015625)"/>
       <path id="DejaVuSans-4b" d="M 628 4666 
L 1259 4666 
L 1259 2694 
L 3353 4666 
L 4166 4666 
L 1850 2491 
L 4331 0 
L 3500 0 
L 1259 2247 
L 1259 0 
L 628 0 
L 628 4666 
z
" transform="scale(0.015625)"/>
       <path id="DejaVuSans-73" d="M 2834 3397 
L 2834 2853 
Q 2591 2978 2328 3040 
Q 2066 3103 1784 3103 
Q 1356 3103 1142 2972 
Q 928 2841 928 2578 
Q 928 2378 1081 2264 
Q 1234 2150 1697 2047 
L 1894 2003 
Q 2506 1872 2764 1633 
Q 3022 1394 3022 966 
Q 3022 478 2636 193 
Q 2250 -91 1575 -91 
Q 1294 -91 989 -36 
Q 684 19 347 128 
L 347 722 
Q 666 556 975 473 
Q 1284 391 1588 391 
Q 1994 391 2212 530 
Q 2431 669 2431 922 
Q 2431 1156 2273 1281 
Q 2116 1406 1581 1522 
L 1381 1569 
Q 847 1681 609 1914 
Q 372 2147 372 2553 
Q 372 3047 722 3315 
Q 1072 3584 1716 3584 
Q 2034 3584 2315 3537 
Q 2597 3491 2834 3397 
z
" transform="scale(0.015625)"/>
       <path id="DejaVuSans-79" d="M 2059 -325 
Q 1816 -950 1584 -1140 
Q 1353 -1331 966 -1331 
L 506 -1331 
L 506 -850 
L 844 -850 
Q 1081 -850 1212 -737 
Q 1344 -625 1503 -206 
L 1606 56 
L 191 3500 
L 800 3500 
L 1894 763 
L 2988 3500 
L 3597 3500 
L 2059 -325 
z
" transform="scale(0.015625)"/>
       <path id="DejaVuSans-131" d="M 603 3500 
L 1178 3500 
L 1178 0 
L 603 0 
L 603 3500 
z
M 891 3584 
L 891 3584 
z
" transform="scale(0.015625)"/>
       <path id="DejaVuSans-42" d="M 1259 2228 
L 1259 519 
L 2272 519 
Q 2781 519 3026 730 
Q 3272 941 3272 1375 
Q 3272 1813 3026 2020 
Q 2781 2228 2272 2228 
L 1259 2228 
z
M 1259 4147 
L 1259 2741 
L 2194 2741 
Q 2656 2741 2882 2914 
Q 3109 3088 3109 3444 
Q 3109 3797 2882 3972 
Q 2656 4147 2194 4147 
L 1259 4147 
z
M 628 4666 
L 2241 4666 
Q 2963 4666 3353 4366 
Q 3744 4066 3744 3513 
Q 3744 3084 3544 2831 
Q 3344 2578 2956 2516 
Q 3422 2416 3680 2098 
Q 3938 1781 3938 1306 
Q 3938 681 3513 340 
Q 3088 0 2303 0 
L 628 0 
L 628 4666 
z
" transform="scale(0.015625)"/>
       <path id="DejaVuSans-fc" d="M 544 1381 
L 544 3500 
L 1119 3500 
L 1119 1403 
Q 1119 906 1312 657 
Q 1506 409 1894 409 
Q 2359 409 2629 706 
Q 2900 1003 2900 1516 
L 2900 3500 
L 3475 3500 
L 3475 0 
L 2900 0 
L 2900 538 
Q 2691 219 2414 64 
Q 2138 -91 1772 -91 
Q 1169 -91 856 284 
Q 544 659 544 1381 
z
M 1991 3584 
L 1991 3584 
z
M 2278 4850 
L 2912 4850 
L 2912 4219 
L 2278 4219 
L 2278 4850 
z
M 1056 4850 
L 1690 4850 
L 1690 4219 
L 1056 4219 
L 1056 4850 
z
" transform="scale(0.015625)"/>
       <path id="DejaVuSans-6b" d="M 581 4863 
L 1159 4863 
L 1159 1991 
L 2875 3500 
L 3609 3500 
L 1753 1863 
L 3688 0 
L 2938 0 
L 1159 1709 
L 1159 0 
L 581 0 
L 581 4863 
z
" transform="scale(0.015625)"/>
       <path id="DejaVuSans-11f" d="M 2906 1791 
Q 2906 2416 2648 2759 
Q 2391 3103 1925 3103 
Q 1463 3103 1205 2759 
Q 947 2416 947 1791 
Q 947 1169 1205 825 
Q 1463 481 1925 481 
Q 2391 481 2648 825 
Q 2906 1169 2906 1791 
z
M 3481 434 
Q 3481 -459 3084 -895 
Q 2688 -1331 1869 -1331 
Q 1566 -1331 1297 -1286 
Q 1028 -1241 775 -1147 
L 775 -588 
Q 1028 -725 1275 -790 
Q 1522 -856 1778 -856 
Q 2344 -856 2625 -561 
Q 2906 -266 2906 331 
L 2906 616 
Q 2728 306 2450 153 
Q 2172 0 1784 0 
Q 1141 0 747 490 
Q 353 981 353 1791 
Q 353 2603 747 3093 
Q 1141 3584 1784 3584 
Q 2172 3584 2450 3431 
Q 2728 3278 2906 2969 
L 2906 3500 
L 3481 3500 
L 3481 434 
z
M 1054 5025 
L 1423 5025 
Q 1457 4791 1608 4673 
Q 1760 4556 2032 4556 
Q 2301 4556 2451 4672 
Q 2601 4788 2641 5025 
L 3010 5025 
Q 2979 4578 2732 4353 
Q 2485 4128 2032 4128 
Q 1579 4128 1332 4353 
Q 1085 4578 1054 5025 
z
" transform="scale(0.015625)"/>
       <path id="DejaVuSans-28" d="M 1984 4856 
Q 1566 4138 1362 3434 
Q 1159 2731 1159 2009 
Q 1159 1288 1364 580 
Q 1569 -128 1984 -844 
L 1484 -844 
Q 1016 -109 783 600 
Q 550 1309 550 2009 
Q 550 2706 781 3412 
Q 1013 4119 1484 4856 
L 1984 4856 
z
" transform="scale(0.015625)"/>
       <path id="DejaVuSans-49" d="M 628 4666 
L 1259 4666 
L 1259 0 
L 628 0 
L 628 4666 
z
" transform="scale(0.015625)"/>
       <path id="DejaVuSans-70" d="M 1159 525 
L 1159 -1331 
L 581 -1331 
L 581 3500 
L 1159 3500 
L 1159 2969 
Q 1341 3281 1617 3432 
Q 1894 3584 2278 3584 
Q 2916 3584 3314 3078 
Q 3713 2572 3713 1747 
Q 3713 922 3314 415 
Q 2916 -91 2278 -91 
Q 1894 -91 1617 61 
Q 1341 213 1159 525 
z
M 3116 1747 
Q 3116 2381 2855 2742 
Q 2594 3103 2138 3103 
Q 1681 3103 1420 2742 
Q 1159 2381 1159 1747 
Q 1159 1113 1420 752 
Q 1681 391 2138 391 
Q 2594 391 2855 752 
Q 3116 1113 3116 1747 
z
" transform="scale(0.015625)"/>
       <path id="DejaVuSans-6f" d="M 1959 3097 
Q 1497 3097 1228 2736 
Q 959 2375 959 1747 
Q 959 1119 1226 758 
Q 1494 397 1959 397 
Q 2419 397 2687 759 
Q 2956 1122 2956 1747 
Q 2956 2369 2687 2733 
Q 2419 3097 1959 3097 
z
M 1959 3584 
Q 2709 3584 3137 3096 
Q 3566 2609 3566 1747 
Q 3566 888 3137 398 
Q 2709 -91 1959 -91 
Q 1206 -91 779 398 
Q 353 888 353 1747 
Q 353 2609 779 3096 
Q 1206 3584 1959 3584 
z
" transform="scale(0.015625)"/>
       <path id="DejaVuSans-6e" d="M 3513 2113 
L 3513 0 
L 2938 0 
L 2938 2094 
Q 2938 2591 2744 2837 
Q 2550 3084 2163 3084 
Q 1697 3084 1428 2787 
Q 1159 2491 1159 1978 
L 1159 0 
L 581 0 
L 581 3500 
L 1159 3500 
L 1159 2956 
Q 1366 3272 1645 3428 
Q 1925 3584 2291 3584 
Q 2894 3584 3203 3211 
Q 3513 2838 3513 2113 
z
" transform="scale(0.015625)"/>
       <path id="DejaVuSans-63" d="M 3122 3366 
L 3122 2828 
Q 2878 2963 2633 3030 
Q 2388 3097 2138 3097 
Q 1578 3097 1268 2742 
Q 959 2388 959 1747 
Q 959 1106 1268 751 
Q 1578 397 2138 397 
Q 2388 397 2633 464 
Q 2878 531 3122 666 
L 3122 134 
Q 2881 22 2623 -34 
Q 2366 -91 2075 -91 
Q 1284 -91 818 406 
Q 353 903 353 1747 
Q 353 2603 823 3093 
Q 1294 3584 2113 3584 
Q 2378 3584 2631 3529 
Q 2884 3475 3122 3366 
z
" transform="scale(0.015625)"/>
       <path id="DejaVuSans-65" d="M 3597 1894 
L 3597 1613 
L 953 1613 
Q 991 1019 1311 708 
Q 1631 397 2203 397 
Q 2534 397 2845 478 
Q 3156 559 3463 722 
L 3463 178 
Q 3153 47 2828 -22 
Q 2503 -91 2169 -91 
Q 1331 -91 842 396 
Q 353 884 353 1716 
Q 353 2575 817 3079 
Q 1281 3584 2069 3584 
Q 2775 3584 3186 3129 
Q 3597 2675 3597 1894 
z
M 3022 2063 
Q 3016 2534 2758 2815 
Q 2500 3097 2075 3097 
Q 1594 3097 1305 2825 
Q 1016 2553 972 2059 
L 3022 2063 
z
" transform="scale(0.015625)"/>
       <path id="DejaVuSans-29" d="M 513 4856 
L 1013 4856 
Q 1481 4119 1714 3412 
Q 1947 2706 1947 2009 
Q 1947 1309 1714 600 
Q 1481 -109 1013 -844 
L 513 -844 
Q 928 -128 1133 580 
Q 1338 1288 1338 2009 
Q 1338 2731 1133 3434 
Q 928 4138 513 4856 
z
" transform="scale(0.015625)"/>
      </defs>
      <use xlink:href="#DejaVuSans-4f"/>
      <use xlink:href="#DejaVuSans-72" x="78.710938"/>
      <use xlink:href="#DejaVuSans-74" x="119.824219"/>
      <use xlink:href="#DejaVuSans-61" x="159.033203"/>
      <use xlink:href="#DejaVuSans-6c" x="220.3125"/>
      <use xlink:href="#DejaVuSans-61" x="248.095703"/>
      <use xlink:href="#DejaVuSans-6d" x="309.375"/>
      <use xlink:href="#DejaVuSans-61" x="406.787109"/>
      <use xlink:href="#DejaVuSans-20" x="468.066406"/>
      <use xlink:href="#DejaVuSans-4b" x="499.853516"/>
      <use xlink:href="#DejaVuSans-61" x="563.679688"/>
      <use xlink:href="#DejaVuSans-74" x="624.958984"/>
      <use xlink:href="#DejaVuSans-73" x="664.167969"/>
      <use xlink:href="#DejaVuSans-61" x="716.267578"/>
      <use xlink:href="#DejaVuSans-79" x="777.546875"/>
      <use xlink:href="#DejaVuSans-131" x="836.726562"/>
      <use xlink:href="#DejaVuSans-20" x="864.509766"/>
      <use xlink:href="#DejaVuSans-42" x="896.296875"/>
      <use xlink:href="#DejaVuSans-fc" x="964.900391"/>
      <use xlink:href="#DejaVuSans-79" x="1028.279297"/>
      <use xlink:href="#DejaVuSans-fc" x="1087.458984"/>
      <use xlink:href="#DejaVuSans-6b" x="1150.837891"/>
      <use xlink:href="#DejaVuSans-6c" x="1208.748047"/>
      <use xlink:href="#DejaVuSans-fc" x="1236.53125"/>
      <use xlink:href="#DejaVuSans-11f" x="1299.910156"/>
      <use xlink:href="#DejaVuSans-fc" x="1363.386719"/>
      <use xlink:href="#DejaVuSans-20" x="1426.765625"/>
      <use xlink:href="#DejaVuSans-28" x="1458.552734"/>
      <use xlink:href="#DejaVuSans-49" x="1497.566406"/>
      <use xlink:href="#DejaVuSans-6d" x="1527.058594"/>
      <use xlink:href="#DejaVuSans-70" x="1624.470703"/>
      <use xlink:href="#DejaVuSans-6f" x="1687.947266"/>
      <use xlink:href="#DejaVuSans-72" x="1749.128906"/>
      <use xlink:href="#DejaVuSans-74" x="1790.242188"/>
      <use xlink:href="#DejaVuSans-61" x="1829.451172"/>
      <use xlink:href="#DejaVuSans-6e" x="1890.730469"/>
      <use xlink:href="#DejaVuSans-63" x="1954.109375"/>
      <use xlink:href="#DejaVuSans-65" x="2009.089844"/>
      <use xlink:href="#DejaVuSans-29" x="2070.613281"/>
     </g>
    </g>
   </g>
   <g id="matplotlib.axis_2">
    <g id="ytick_1">
     <g id="line2d_7">
      <defs>
       <path id="m9f65321f8a" d="M 0 0 
L -3.5 0 
" style="stroke: #000000; stroke-width: 0.8"/>
      </defs>
      <g>
       <use xlink:href="#m9f65321f8a" x="120.173594" y="425.007599" style="stroke: #000000; stroke-width: 0.8"/>
      </g>
     </g>
     <g id="text_8">
      <!-- Derse Katılım -->
      <g transform="translate(52.86375 428.426896) scale(0.09 -0.09)">
       <defs>
        <path id="DejaVuSans-44" d="M 1259 4147 
L 1259 519 
L 2022 519 
Q 2988 519 3436 956 
Q 3884 1394 3884 2338 
Q 3884 3275 3436 3711 
Q 2988 4147 2022 4147 
L 1259 4147 
z
M 628 4666 
L 1925 4666 
Q 3281 4666 3915 4102 
Q 4550 3538 4550 2338 
Q 4550 1131 3912 565 
Q 3275 0 1925 0 
L 628 0 
L 628 4666 
z
" transform="scale(0.015625)"/>
       </defs>
       <use xlink:href="#DejaVuSans-44"/>
       <use xlink:href="#DejaVuSans-65" x="77.001953"/>
       <use xlink:href="#DejaVuSans-72" x="138.525391"/>
       <use xlink:href="#DejaVuSans-73" x="179.638672"/>
       <use xlink:href="#DejaVuSans-65" x="231.738281"/>
       <use xlink:href="#DejaVuSans-20" x="293.261719"/>
       <use xlink:href="#DejaVuSans-4b" x="325.048828"/>
       <use xlink:href="#DejaVuSans-61" x="388.875"/>
       <use xlink:href="#DejaVuSans-74" x="450.154297"/>
       <use xlink:href="#DejaVuSans-131" x="489.363281"/>
       <use xlink:href="#DejaVuSans-6c" x="517.146484"/>
       <use xlink:href="#DejaVuSans-131" x="544.929688"/>
       <use xlink:href="#DejaVuSans-6d" x="572.712891"/>
      </g>
     </g>
    </g>
    <g id="ytick_2">
     <g id="line2d_8">
      <g>
       <use xlink:href="#m9f65321f8a" x="120.173594" y="388.226454" style="stroke: #000000; stroke-width: 0.8"/>
      </g>
     </g>
     <g id="text_9">
      <!-- Çalışma Saatleri -->
      <g transform="translate(40.031719 391.645751) scale(0.09 -0.09)">
       <defs>
        <path id="DejaVuSans-c7" d="M 4122 4306 
L 4122 3641 
Q 3803 3938 3442 4084 
Q 3081 4231 2675 4231 
Q 1875 4231 1450 3742 
Q 1025 3253 1025 2328 
Q 1025 1406 1450 917 
Q 1875 428 2675 428 
Q 3081 428 3442 575 
Q 3803 722 4122 1019 
L 4122 359 
Q 3791 134 3420 21 
Q 3050 -91 2638 -91 
Q 1578 -91 968 557 
Q 359 1206 359 2328 
Q 359 3453 968 4101 
Q 1578 4750 2638 4750 
Q 3056 4750 3426 4639 
Q 3797 4528 4122 4306 
z
M 2807 0 
Q 2978 -194 3062 -358 
Q 3147 -522 3147 -672 
Q 3147 -950 2959 -1092 
Q 2772 -1234 2403 -1234 
Q 2260 -1234 2124 -1215 
Q 1988 -1197 1853 -1159 
L 1853 -750 
Q 1960 -803 2075 -826 
Q 2191 -850 2338 -850 
Q 2522 -850 2616 -775 
Q 2710 -700 2710 -556 
Q 2710 -463 2642 -327 
Q 2575 -191 2435 0 
L 2807 0 
z
" transform="scale(0.015625)"/>
        <path id="DejaVuSans-15f" d="M 2834 3397 
L 2834 2853 
Q 2591 2978 2328 3040 
Q 2066 3103 1784 3103 
Q 1356 3103 1142 2972 
Q 928 2841 928 2578 
Q 928 2378 1081 2264 
Q 1234 2150 1697 2047 
L 1894 2003 
Q 2506 1872 2764 1633 
Q 3022 1394 3022 966 
Q 3022 478 2636 193 
Q 2250 -91 1575 -91 
Q 1294 -91 989 -36 
Q 684 19 347 128 
L 347 722 
Q 666 556 975 473 
Q 1284 391 1588 391 
Q 1994 391 2212 530 
Q 2431 669 2431 922 
Q 2431 1156 2273 1281 
Q 2116 1406 1581 1522 
L 1381 1569 
Q 847 1681 609 1914 
Q 372 2147 372 2553 
Q 372 3047 722 3315 
Q 1072 3584 1716 3584 
Q 2034 3584 2315 3537 
Q 2597 3491 2834 3397 
z
M 1935 0 
Q 2106 -194 2190 -358 
Q 2275 -522 2275 -672 
Q 2275 -950 2087 -1092 
Q 1900 -1234 1531 -1234 
Q 1388 -1234 1252 -1215 
Q 1116 -1197 981 -1159 
L 981 -750 
Q 1088 -803 1203 -826 
Q 1319 -850 1466 -850 
Q 1650 -850 1744 -775 
Q 1838 -700 1838 -556 
Q 1838 -463 1770 -327 
Q 1703 -191 1563 0 
L 1935 0 
z
" transform="scale(0.015625)"/>
        <path id="DejaVuSans-53" d="M 3425 4513 
L 3425 3897 
Q 3066 4069 2747 4153 
Q 2428 4238 2131 4238 
Q 1616 4238 1336 4038 
Q 1056 3838 1056 3469 
Q 1056 3159 1242 3001 
Q 1428 2844 1947 2747 
L 2328 2669 
Q 3034 2534 3370 2195 
Q 3706 1856 3706 1288 
Q 3706 609 3251 259 
Q 2797 -91 1919 -91 
Q 1588 -91 1214 -16 
Q 841 59 441 206 
L 441 856 
Q 825 641 1194 531 
Q 1563 422 1919 422 
Q 2459 422 2753 634 
Q 3047 847 3047 1241 
Q 3047 1584 2836 1778 
Q 2625 1972 2144 2069 
L 1759 2144 
Q 1053 2284 737 2584 
Q 422 2884 422 3419 
Q 422 4038 858 4394 
Q 1294 4750 2059 4750 
Q 2388 4750 2728 4690 
Q 3069 4631 3425 4513 
z
" transform="scale(0.015625)"/>
        <path id="DejaVuSans-69" d="M 603 3500 
L 1178 3500 
L 1178 0 
L 603 0 
L 603 3500 
z
M 603 4863 
L 1178 4863 
L 1178 4134 
L 603 4134 
L 603 4863 
z
" transform="scale(0.015625)"/>
       </defs>
       <use xlink:href="#DejaVuSans-c7"/>
       <use xlink:href="#DejaVuSans-61" x="69.824219"/>
       <use xlink:href="#DejaVuSans-6c" x="131.103516"/>
       <use xlink:href="#DejaVuSans-131" x="158.886719"/>
       <use xlink:href="#DejaVuSans-15f" x="186.669922"/>
       <use xlink:href="#DejaVuSans-6d" x="238.769531"/>
       <use xlink:href="#DejaVuSans-61" x="336.181641"/>
       <use xlink:href="#DejaVuSans-20" x="397.460938"/>
       <use xlink:href="#DejaVuSans-53" x="429.248047"/>
       <use xlink:href="#DejaVuSans-61" x="492.724609"/>
       <use xlink:href="#DejaVuSans-61" x="554.003906"/>
       <use xlink:href="#DejaVuSans-74" x="615.283203"/>
       <use xlink:href="#DejaVuSans-6c" x="654.492188"/>
       <use xlink:href="#DejaVuSans-65" x="682.275391"/>
       <use xlink:href="#DejaVuSans-72" x="743.798828"/>
       <use xlink:href="#DejaVuSans-69" x="784.912109"/>
      </g>
     </g>
    </g>
    <g id="ytick_3">
     <g id="line2d_9">
      <g>
       <use xlink:href="#m9f65321f8a" x="120.173594" y="351.445309" style="stroke: #000000; stroke-width: 0.8"/>
      </g>
     </g>
     <g id="text_10">
      <!-- Akran Baskısı -->
      <g transform="translate(52.747031 354.864606) scale(0.09 -0.09)">
       <defs>
        <path id="DejaVuSans-41" d="M 2188 4044 
L 1331 1722 
L 3047 1722 
L 2188 4044 
z
M 1831 4666 
L 2547 4666 
L 4325 0 
L 3669 0 
L 3244 1197 
L 1141 1197 
L 716 0 
L 50 0 
L 1831 4666 
z
" transform="scale(0.015625)"/>
       </defs>
       <use xlink:href="#DejaVuSans-41"/>
       <use xlink:href="#DejaVuSans-6b" x="68.408203"/>
       <use xlink:href="#DejaVuSans-72" x="126.318359"/>
       <use xlink:href="#DejaVuSans-61" x="167.431641"/>
       <use xlink:href="#DejaVuSans-6e" x="228.710938"/>
       <use xlink:href="#DejaVuSans-20" x="292.089844"/>
       <use xlink:href="#DejaVuSans-42" x="323.876953"/>
       <use xlink:href="#DejaVuSans-61" x="392.480469"/>
       <use xlink:href="#DejaVuSans-73" x="453.759766"/>
       <use xlink:href="#DejaVuSans-6b" x="505.859375"/>
       <use xlink:href="#DejaVuSans-131" x="563.769531"/>
       <use xlink:href="#DejaVuSans-73" x="591.552734"/>
       <use xlink:href="#DejaVuSans-131" x="643.652344"/>
      </g>
     </g>
    </g>
    <g id="ytick_4">
     <g id="line2d_10">
      <g>
       <use xlink:href="#m9f65321f8a" x="120.173594" y="314.664165" style="stroke: #000000; stroke-width: 0.8"/>
      </g>
     </g>
     <g id="text_11">
      <!-- Yaş -->
      <g transform="translate(98.710313 318.083461) scale(0.09 -0.09)">
       <defs>
        <path id="DejaVuSans-59" d="M -13 4666 
L 666 4666 
L 1959 2747 
L 3244 4666 
L 3922 4666 
L 2272 2222 
L 2272 0 
L 1638 0 
L 1638 2222 
L -13 4666 
z
" transform="scale(0.015625)"/>
       </defs>
       <use xlink:href="#DejaVuSans-59"/>
       <use xlink:href="#DejaVuSans-61" x="47.333984"/>
       <use xlink:href="#DejaVuSans-15f" x="108.613281"/>
      </g>
     </g>
    </g>
    <g id="ytick_5">
     <g id="line2d_11">
      <g>
       <use xlink:href="#m9f65321f8a" x="120.173594" y="277.88302" style="stroke: #000000; stroke-width: 0.8"/>
      </g>
     </g>
     <g id="text_12">
      <!-- Uyku Saatleri -->
      <g transform="translate(53.254687 281.302317) scale(0.09 -0.09)">
       <defs>
        <path id="DejaVuSans-55" d="M 556 4666 
L 1191 4666 
L 1191 1831 
Q 1191 1081 1462 751 
Q 1734 422 2344 422 
Q 2950 422 3222 751 
Q 3494 1081 3494 1831 
L 3494 4666 
L 4128 4666 
L 4128 1753 
Q 4128 841 3676 375 
Q 3225 -91 2344 -91 
Q 1459 -91 1007 375 
Q 556 841 556 1753 
L 556 4666 
z
" transform="scale(0.015625)"/>
        <path id="DejaVuSans-75" d="M 544 1381 
L 544 3500 
L 1119 3500 
L 1119 1403 
Q 1119 906 1312 657 
Q 1506 409 1894 409 
Q 2359 409 2629 706 
Q 2900 1003 2900 1516 
L 2900 3500 
L 3475 3500 
L 3475 0 
L 2900 0 
L 2900 538 
Q 2691 219 2414 64 
Q 2138 -91 1772 -91 
Q 1169 -91 856 284 
Q 544 659 544 1381 
z
M 1991 3584 
L 1991 3584 
z
" transform="scale(0.015625)"/>
       </defs>
       <use xlink:href="#DejaVuSans-55"/>
       <use xlink:href="#DejaVuSans-79" x="73.193359"/>
       <use xlink:href="#DejaVuSans-6b" x="132.373047"/>
       <use xlink:href="#DejaVuSans-75" x="187.158203"/>
       <use xlink:href="#DejaVuSans-20" x="250.537109"/>
       <use xlink:href="#DejaVuSans-53" x="282.324219"/>
       <use xlink:href="#DejaVuSans-61" x="345.800781"/>
       <use xlink:href="#DejaVuSans-61" x="407.080078"/>
       <use xlink:href="#DejaVuSans-74" x="468.359375"/>
       <use xlink:href="#DejaVuSans-6c" x="507.568359"/>
       <use xlink:href="#DejaVuSans-65" x="535.351562"/>
       <use xlink:href="#DejaVuSans-72" x="596.875"/>
       <use xlink:href="#DejaVuSans-69" x="637.988281"/>
      </g>
     </g>
    </g>
    <g id="ytick_6">
     <g id="line2d_12">
      <g>
       <use xlink:href="#m9f65321f8a" x="120.173594" y="241.101875" style="stroke: #000000; stroke-width: 0.8"/>
      </g>
     </g>
     <g id="text_13">
      <!-- Sosyal Medya Kullanımı -->
      <g transform="translate(7.2 244.521172) scale(0.09 -0.09)">
       <defs>
        <path id="DejaVuSans-4d" d="M 628 4666 
L 1569 4666 
L 2759 1491 
L 3956 4666 
L 4897 4666 
L 4897 0 
L 4281 0 
L 4281 4097 
L 3078 897 
L 2444 897 
L 1241 4097 
L 1241 0 
L 628 0 
L 628 4666 
z
" transform="scale(0.015625)"/>
        <path id="DejaVuSans-64" d="M 2906 2969 
L 2906 4863 
L 3481 4863 
L 3481 0 
L 2906 0 
L 2906 525 
Q 2725 213 2448 61 
Q 2172 -91 1784 -91 
Q 1150 -91 751 415 
Q 353 922 353 1747 
Q 353 2572 751 3078 
Q 1150 3584 1784 3584 
Q 2172 3584 2448 3432 
Q 2725 3281 2906 2969 
z
M 947 1747 
Q 947 1113 1208 752 
Q 1469 391 1925 391 
Q 2381 391 2643 752 
Q 2906 1113 2906 1747 
Q 2906 2381 2643 2742 
Q 2381 3103 1925 3103 
Q 1469 3103 1208 2742 
Q 947 2381 947 1747 
z
" transform="scale(0.015625)"/>
       </defs>
       <use xlink:href="#DejaVuSans-53"/>
       <use xlink:href="#DejaVuSans-6f" x="63.476562"/>
       <use xlink:href="#DejaVuSans-73" x="124.658203"/>
       <use xlink:href="#DejaVuSans-79" x="176.757812"/>
       <use xlink:href="#DejaVuSans-61" x="235.9375"/>
       <use xlink:href="#DejaVuSans-6c" x="297.216797"/>
       <use xlink:href="#DejaVuSans-20" x="325"/>
       <use xlink:href="#DejaVuSans-4d" x="356.787109"/>
       <use xlink:href="#DejaVuSans-65" x="443.066406"/>
       <use xlink:href="#DejaVuSans-64" x="504.589844"/>
       <use xlink:href="#DejaVuSans-79" x="568.066406"/>
       <use xlink:href="#DejaVuSans-61" x="627.246094"/>
       <use xlink:href="#DejaVuSans-20" x="688.525391"/>
       <use xlink:href="#DejaVuSans-4b" x="720.3125"/>
       <use xlink:href="#DejaVuSans-75" x="780.888672"/>
       <use xlink:href="#DejaVuSans-6c" x="844.267578"/>
       <use xlink:href="#DejaVuSans-6c" x="872.050781"/>
       <use xlink:href="#DejaVuSans-61" x="899.833984"/>
       <use xlink:href="#DejaVuSans-6e" x="961.113281"/>
       <use xlink:href="#DejaVuSans-131" x="1024.492188"/>
       <use xlink:href="#DejaVuSans-6d" x="1052.275391"/>
       <use xlink:href="#DejaVuSans-131" x="1149.6875"/>
      </g>
     </g>
    </g>
    <g id="ytick_7">
     <g id="line2d_13">
      <g>
       <use xlink:href="#m9f65321f8a" x="120.173594" y="204.32073" style="stroke: #000000; stroke-width: 0.8"/>
      </g>
     </g>
     <g id="text_14">
      <!-- Sınav Sıklığı -->
      <g transform="translate(58.913437 207.853933) scale(0.09 -0.09)">
       <defs>
        <path id="DejaVuSans-76" d="M 191 3500 
L 800 3500 
L 1894 563 
L 2988 3500 
L 3597 3500 
L 2284 0 
L 1503 0 
L 191 3500 
z
" transform="scale(0.015625)"/>
       </defs>
       <use xlink:href="#DejaVuSans-53"/>
       <use xlink:href="#DejaVuSans-131" x="63.476562"/>
       <use xlink:href="#DejaVuSans-6e" x="91.259766"/>
       <use xlink:href="#DejaVuSans-61" x="154.638672"/>
       <use xlink:href="#DejaVuSans-76" x="215.917969"/>
       <use xlink:href="#DejaVuSans-20" x="275.097656"/>
       <use xlink:href="#DejaVuSans-53" x="306.884766"/>
       <use xlink:href="#DejaVuSans-131" x="370.361328"/>
       <use xlink:href="#DejaVuSans-6b" x="398.144531"/>
       <use xlink:href="#DejaVuSans-6c" x="456.054688"/>
       <use xlink:href="#DejaVuSans-131" x="483.837891"/>
       <use xlink:href="#DejaVuSans-11f" x="511.621094"/>
       <use xlink:href="#DejaVuSans-131" x="575.097656"/>
      </g>
     </g>
    </g>
    <g id="ytick_8">
     <g id="line2d_14">
      <g>
       <use xlink:href="#m9f65321f8a" x="120.173594" y="167.539585" style="stroke: #000000; stroke-width: 0.8"/>
      </g>
     </g>
     <g id="text_15">
      <!-- Kaygı Seviyesi -->
      <g transform="translate(48.380625 170.958882) scale(0.09 -0.09)">
       <defs>
        <path id="DejaVuSans-67" d="M 2906 1791 
Q 2906 2416 2648 2759 
Q 2391 3103 1925 3103 
Q 1463 3103 1205 2759 
Q 947 2416 947 1791 
Q 947 1169 1205 825 
Q 1463 481 1925 481 
Q 2391 481 2648 825 
Q 2906 1169 2906 1791 
z
M 3481 434 
Q 3481 -459 3084 -895 
Q 2688 -1331 1869 -1331 
Q 1566 -1331 1297 -1286 
Q 1028 -1241 775 -1147 
L 775 -588 
Q 1028 -725 1275 -790 
Q 1522 -856 1778 -856 
Q 2344 -856 2625 -561 
Q 2906 -266 2906 331 
L 2906 616 
Q 2728 306 2450 153 
Q 2172 0 1784 0 
Q 1141 0 747 490 
Q 353 981 353 1791 
Q 353 2603 747 3093 
Q 1141 3584 1784 3584 
Q 2172 3584 2450 3431 
Q 2728 3278 2906 2969 
L 2906 3500 
L 3481 3500 
L 3481 434 
z
" transform="scale(0.015625)"/>
       </defs>
       <use xlink:href="#DejaVuSans-4b"/>
       <use xlink:href="#DejaVuSans-61" x="63.826172"/>
       <use xlink:href="#DejaVuSans-79" x="125.105469"/>
       <use xlink:href="#DejaVuSans-67" x="184.285156"/>
       <use xlink:href="#DejaVuSans-131" x="247.761719"/>
       <use xlink:href="#DejaVuSans-20" x="275.544922"/>
       <use xlink:href="#DejaVuSans-53" x="307.332031"/>
       <use xlink:href="#DejaVuSans-65" x="370.808594"/>
       <use xlink:href="#DejaVuSans-76" x="432.332031"/>
       <use xlink:href="#DejaVuSans-69" x="491.511719"/>
       <use xlink:href="#DejaVuSans-79" x="519.294922"/>
       <use xlink:href="#DejaVuSans-65" x="578.474609"/>
       <use xlink:href="#DejaVuSans-73" x="639.998047"/>
       <use xlink:href="#DejaVuSans-69" x="692.097656"/>
      </g>
     </g>
    </g>
    <g id="ytick_9">
     <g id="line2d_15">
      <g>
       <use xlink:href="#m9f65321f8a" x="120.173594" y="130.758441" style="stroke: #000000; stroke-width: 0.8"/>
      </g>
     </g>
     <g id="text_16">
      <!-- Aile Desteği -->
      <g transform="translate(59.182031 134.291644) scale(0.09 -0.09)">
       <use xlink:href="#DejaVuSans-41"/>
       <use xlink:href="#DejaVuSans-69" x="68.408203"/>
       <use xlink:href="#DejaVuSans-6c" x="96.191406"/>
       <use xlink:href="#DejaVuSans-65" x="123.974609"/>
       <use xlink:href="#DejaVuSans-20" x="185.498047"/>
       <use xlink:href="#DejaVuSans-44" x="217.285156"/>
       <use xlink:href="#DejaVuSans-65" x="294.287109"/>
       <use xlink:href="#DejaVuSans-73" x="355.810547"/>
       <use xlink:href="#DejaVuSans-74" x="407.910156"/>
       <use xlink:href="#DejaVuSans-65" x="447.119141"/>
       <use xlink:href="#DejaVuSans-11f" x="508.642578"/>
       <use xlink:href="#DejaVuSans-69" x="572.119141"/>
      </g>
     </g>
    </g>
    <g id="ytick_10">
     <g id="line2d_16">
      <g>
       <use xlink:href="#m9f65321f8a" x="120.173594" y="93.977296" style="stroke: #000000; stroke-width: 0.8"/>
      </g>
     </g>
     <g id="text_17">
      <!-- Ödev Yükü -->
      <g transform="translate(65.850469 97.396593) scale(0.09 -0.09)">
       <defs>
        <path id="DejaVuSans-d6" d="M 2522 4238 
Q 1834 4238 1429 3725 
Q 1025 3213 1025 2328 
Q 1025 1447 1429 934 
Q 1834 422 2522 422 
Q 3209 422 3611 934 
Q 4013 1447 4013 2328 
Q 4013 3213 3611 3725 
Q 3209 4238 2522 4238 
z
M 2522 4750 
Q 3503 4750 4090 4092 
Q 4678 3434 4678 2328 
Q 4678 1225 4090 567 
Q 3503 -91 2522 -91 
Q 1538 -91 948 565 
Q 359 1222 359 2328 
Q 359 3434 948 4092 
Q 1538 4750 2522 4750 
z
M 2814 5830 
L 3448 5830 
L 3448 5196 
L 2814 5196 
L 2814 5830 
z
M 1592 5830 
L 2226 5830 
L 2226 5196 
L 1592 5196 
L 1592 5830 
z
" transform="scale(0.015625)"/>
       </defs>
       <use xlink:href="#DejaVuSans-d6"/>
       <use xlink:href="#DejaVuSans-64" x="78.710938"/>
       <use xlink:href="#DejaVuSans-65" x="142.1875"/>
       <use xlink:href="#DejaVuSans-76" x="203.710938"/>
       <use xlink:href="#DejaVuSans-20" x="262.890625"/>
       <use xlink:href="#DejaVuSans-59" x="294.677734"/>
       <use xlink:href="#DejaVuSans-fc" x="344.261719"/>
       <use xlink:href="#DejaVuSans-6b" x="407.640625"/>
       <use xlink:href="#DejaVuSans-fc" x="462.425781"/>
      </g>
     </g>
    </g>
    <g id="ytick_11">
     <g id="line2d_17">
      <g>
       <use xlink:href="#m9f65321f8a" x="120.173594" y="57.196151" style="stroke: #000000; stroke-width: 0.8"/>
      </g>
     </g>
     <g id="text_18">
      <!-- Ekran Süresi -->
      <g transform="translate(56.854687 60.615448) scale(0.09 -0.09)">
       <defs>
        <path id="DejaVuSans-45" d="M 628 4666 
L 3578 4666 
L 3578 4134 
L 1259 4134 
L 1259 2753 
L 3481 2753 
L 3481 2222 
L 1259 2222 
L 1259 531 
L 3634 531 
L 3634 0 
L 628 0 
L 628 4666 
z
" transform="scale(0.015625)"/>
       </defs>
       <use xlink:href="#DejaVuSans-45"/>
       <use xlink:href="#DejaVuSans-6b" x="63.183594"/>
       <use xlink:href="#DejaVuSans-72" x="121.09375"/>
       <use xlink:href="#DejaVuSans-61" x="162.207031"/>
       <use xlink:href="#DejaVuSans-6e" x="223.486328"/>
       <use xlink:href="#DejaVuSans-20" x="286.865234"/>
       <use xlink:href="#DejaVuSans-53" x="318.652344"/>
       <use xlink:href="#DejaVuSans-fc" x="382.128906"/>
       <use xlink:href="#DejaVuSans-72" x="445.507812"/>
       <use xlink:href="#DejaVuSans-65" x="484.371094"/>
       <use xlink:href="#DejaVuSans-73" x="545.894531"/>
       <use xlink:href="#DejaVuSans-69" x="597.994141"/>
      </g>
     </g>
    </g>
   </g>
   <g id="patch_14">
    <path d="M 120.173594 459.581875 
L 120.173594 22.621875 
" style="fill: none; stroke: #000000; stroke-width: 0.8; stroke-linejoin: miter; stroke-linecap: square"/>
   </g>
   <g id="patch_15">
    <path d="M 120.173594 459.581875 
L 705.463594 459.581875 
" style="fill: none; stroke: #000000; stroke-width: 0.8; stroke-linejoin: miter; stroke-linecap: square"/>
   </g>
   <g id="text_19">
    <!-- Şekil 4.4. Değişken etkisi / önem sıralaması (Logistic Regression) -->
    <g transform="translate(218.212344 16.621875) scale(0.12 -0.12)">
     <defs>
      <path id="DejaVuSans-15e" d="M 3425 4513 
L 3425 3897 
Q 3066 4069 2747 4153 
Q 2428 4238 2131 4238 
Q 1616 4238 1336 4038 
Q 1056 3838 1056 3469 
Q 1056 3159 1242 3001 
Q 1428 2844 1947 2747 
L 2328 2669 
Q 3034 2534 3370 2195 
Q 3706 1856 3706 1288 
Q 3706 609 3251 259 
Q 2797 -91 1919 -91 
Q 1588 -91 1214 -16 
Q 841 59 441 206 
L 441 856 
Q 825 641 1194 531 
Q 1563 422 1919 422 
Q 2459 422 2753 634 
Q 3047 847 3047 1241 
Q 3047 1584 2836 1778 
Q 2625 1972 2144 2069 
L 1759 2144 
Q 1053 2284 737 2584 
Q 422 2884 422 3419 
Q 422 4038 858 4394 
Q 1294 4750 2059 4750 
Q 2388 4750 2728 4690 
Q 3069 4631 3425 4513 
z
M 2295 0 
Q 2466 -194 2550 -358 
Q 2635 -522 2635 -672 
Q 2635 -950 2447 -1092 
Q 2260 -1234 1891 -1234 
Q 1748 -1234 1612 -1215 
Q 1476 -1197 1341 -1159 
L 1341 -750 
Q 1448 -803 1563 -826 
Q 1679 -850 1826 -850 
Q 2010 -850 2104 -775 
Q 2198 -700 2198 -556 
Q 2198 -463 2130 -327 
Q 2063 -191 1923 0 
L 2295 0 
z
" transform="scale(0.015625)"/>
      <path id="DejaVuSans-34" d="M 2419 4116 
L 825 1625 
L 2419 1625 
L 2419 4116 
z
M 2253 4666 
L 3047 4666 
L 3047 1625 
L 3713 1625 
L 3713 1100 
L 3047 1100 
L 3047 0 
L 2419 0 
L 2419 1100 
L 313 1100 
L 313 1709 
L 2253 4666 
z
" transform="scale(0.015625)"/>
      <path id="DejaVuSans-2f" d="M 1625 4666 
L 2156 4666 
L 531 -594 
L 0 -594 
L 1625 4666 
z
" transform="scale(0.015625)"/>
      <path id="DejaVuSans-f6" d="M 1959 3097 
Q 1497 3097 1228 2736 
Q 959 2375 959 1747 
Q 959 1119 1226 758 
Q 1494 397 1959 397 
Q 2419 397 2687 759 
Q 2956 1122 2956 1747 
Q 2956 2369 2687 2733 
Q 2419 3097 1959 3097 
z
M 1959 3584 
Q 2709 3584 3137 3096 
Q 3566 2609 3566 1747 
Q 3566 888 3137 398 
Q 2709 -91 1959 -91 
Q 1206 -91 779 398 
Q 353 888 353 1747 
Q 353 2609 779 3096 
Q 1206 3584 1959 3584 
z
M 2254 4850 
L 2888 4850 
L 2888 4219 
L 2254 4219 
L 2254 4850 
z
M 1032 4850 
L 1666 4850 
L 1666 4219 
L 1032 4219 
L 1032 4850 
z
" transform="scale(0.015625)"/>
      <path id="DejaVuSans-4c" d="M 628 4666 
L 1259 4666 
L 1259 531 
L 3531 531 
L 3531 0 
L 628 0 
L 628 4666 
z
" transform="scale(0.015625)"/>
      <path id="DejaVuSans-52" d="M 2841 2188 
Q 3044 2119 3236 1894 
Q 3428 1669 3622 1275 
L 4263 0 
L 3584 0 
L 2988 1197 
Q 2756 1666 2539 1819 
Q 2322 1972 1947 1972 
L 1259 1972 
L 1259 0 
L 628 0 
L 628 4666 
L 2053 4666 
Q 2853 4666 3247 4331 
Q 3641 3997 3641 3322 
Q 3641 2881 3436 2590 
Q 3231 2300 2841 2188 
z
M 1259 4147 
L 1259 2491 
L 2053 2491 
Q 2509 2491 2742 2702 
Q 2975 2913 2975 3322 
Q 2975 3731 2742 3939 
Q 2509 4147 2053 4147 
L 1259 4147 
z
" transform="scale(0.015625)"/>
     </defs>
     <use xlink:href="#DejaVuSans-15e"/>
     <use xlink:href="#DejaVuSans-65" x="63.476562"/>
     <use xlink:href="#DejaVuSans-6b" x="125"/>
     <use xlink:href="#DejaVuSans-69" x="182.910156"/>
     <use xlink:href="#DejaVuSans-6c" x="210.693359"/>
     <use xlink:href="#DejaVuSans-20" x="238.476562"/>
     <use xlink:href="#DejaVuSans-34" x="270.263672"/>
     <use xlink:href="#DejaVuSans-2e" x="333.886719"/>
     <use xlink:href="#DejaVuSans-34" x="365.673828"/>
     <use xlink:href="#DejaVuSans-2e" x="429.296875"/>
     <use xlink:href="#DejaVuSans-20" x="461.083984"/>
     <use xlink:href="#DejaVuSans-44" x="492.871094"/>
     <use xlink:href="#DejaVuSans-65" x="569.873047"/>
     <use xlink:href="#DejaVuSans-11f" x="631.396484"/>
     <use xlink:href="#DejaVuSans-69" x="694.873047"/>
     <use xlink:href="#DejaVuSans-15f" x="722.65625"/>
     <use xlink:href="#DejaVuSans-6b" x="774.755859"/>
     <use xlink:href="#DejaVuSans-65" x="829.041016"/>
     <use xlink:href="#DejaVuSans-6e" x="890.564453"/>
     <use xlink:href="#DejaVuSans-20" x="953.943359"/>
     <use xlink:href="#DejaVuSans-65" x="985.730469"/>
     <use xlink:href="#DejaVuSans-74" x="1047.253906"/>
     <use xlink:href="#DejaVuSans-6b" x="1086.462891"/>
     <use xlink:href="#DejaVuSans-69" x="1144.373047"/>
     <use xlink:href="#DejaVuSans-73" x="1172.15625"/>
     <use xlink:href="#DejaVuSans-69" x="1224.255859"/>
     <use xlink:href="#DejaVuSans-20" x="1252.039062"/>
     <use xlink:href="#DejaVuSans-2f" x="1283.826172"/>
     <use xlink:href="#DejaVuSans-20" x="1317.517578"/>
     <use xlink:href="#DejaVuSans-f6" x="1349.304688"/>
     <use xlink:href="#DejaVuSans-6e" x="1410.486328"/>
     <use xlink:href="#DejaVuSans-65" x="1473.865234"/>
     <use xlink:href="#DejaVuSans-6d" x="1535.388672"/>
     <use xlink:href="#DejaVuSans-20" x="1632.800781"/>
     <use xlink:href="#DejaVuSans-73" x="1664.587891"/>
     <use xlink:href="#DejaVuSans-131" x="1716.6875"/>
     <use xlink:href="#DejaVuSans-72" x="1744.470703"/>
     <use xlink:href="#DejaVuSans-61" x="1785.583984"/>
     <use xlink:href="#DejaVuSans-6c" x="1846.863281"/>
     <use xlink:href="#DejaVuSans-61" x="1874.646484"/>
     <use xlink:href="#DejaVuSans-6d" x="1935.925781"/>
     <use xlink:href="#DejaVuSans-61" x="2033.337891"/>
     <use xlink:href="#DejaVuSans-73" x="2094.617188"/>
     <use xlink:href="#DejaVuSans-131" x="2146.716797"/>
     <use xlink:href="#DejaVuSans-20" x="2174.5"/>
     <use xlink:href="#DejaVuSans-28" x="2206.287109"/>
     <use xlink:href="#DejaVuSans-4c" x="2245.300781"/>
     <use xlink:href="#DejaVuSans-6f" x="2299.263672"/>
     <use xlink:href="#DejaVuSans-67" x="2360.445312"/>
     <use xlink:href="#DejaVuSans-69" x="2423.921875"/>
     <use xlink:href="#DejaVuSans-73" x="2451.705078"/>
     <use xlink:href="#DejaVuSans-74" x="2503.804688"/>
     <use xlink:href="#DejaVuSans-69" x="2543.013672"/>
     <use xlink:href="#DejaVuSans-63" x="2570.796875"/>
     <use xlink:href="#DejaVuSans-20" x="2625.777344"/>
     <use xlink:href="#DejaVuSans-52" x="2657.564453"/>
     <use xlink:href="#DejaVuSans-65" x="2722.546875"/>
     <use xlink:href="#DejaVuSans-67" x="2784.070312"/>
     <use xlink:href="#DejaVuSans-72" x="2847.546875"/>
     <use xlink:href="#DejaVuSans-65" x="2886.410156"/>
     <use xlink:href="#DejaVuSans-73" x="2947.933594"/>
     <use xlink:href="#DejaVuSans-73" x="3000.033203"/>
     <use xlink:href="#DejaVuSans-69" x="3052.132812"/>
     <use xlink:href="#DejaVuSans-6f" x="3079.916016"/>
     <use xlink:href="#DejaVuSans-6e" x="3141.097656"/>
     <use xlink:href="#DejaVuSans-29" x="3204.476562"/>
    </g>
   </g>
  </g>
 </g>
 <defs>
  <clipPath id="p1bbe134219">
   <rect x="120.173594" y="22.621875" width="585.29" height="436.96"/>
  </clipPath>
 </defs>
</svg>
